<?xml version="1.0" encoding="UTF-8"?>
<svg id="Layer_2" data-name="Layer 2" xmlns="http://www.w3.org/2000/svg" viewBox="0 0 139.03 37.85">
  <defs>
    <style>
      .cls-1 {
        fill: #fff;
        stroke: #fff;
        stroke-miterlimit: 10;
        stroke-width: 3px;
      }
    </style>
  </defs>
  <g id="Layer_1-2" data-name="Layer 1">
    <g>
      <path class="cls-1" d="m27.13,22.52c0,1.86-.23,3.62-.7,5.28-.46,1.66-1.2,3.13-2.21,4.39-1.01,1.26-2.33,2.27-3.96,3.02-1.63.75-3.62,1.13-5.95,1.13s-4.32-.38-5.95-1.13c-1.63-.75-2.95-1.76-3.96-3.02-1.01-1.26-1.74-2.73-2.21-4.39-.46-1.66-.7-3.42-.7-5.28V1.5h4.03v20.45c0,1.38.14,2.71.43,3.98.29,1.28.77,2.42,1.44,3.41s1.57,1.78,2.69,2.38c1.12.59,2.53.89,4.22.89s3.1-.3,4.22-.89c1.12-.59,2.02-1.38,2.69-2.38s1.15-2.13,1.44-3.41c.29-1.28.43-2.61.43-3.98V1.5h4.03v21.02Z"/>
      <path class="cls-1" d="m35.44,1.5h6l11.52,26.64h.1L64.67,1.5h5.86v33.98h-4.03V6.97h-.1l-12.19,28.51h-2.45l-12.19-28.51h-.1v28.51h-4.03V1.5Z"/>
      <path class="cls-1" d="m101.77,5.24h-11.23v30.24h-4.03V5.24h-11.23V1.5h26.5v3.74Z"/>
      <path class="cls-1" d="m127.52,17.77c1.18.8,2.36,1.64,3.54,2.52,1.18.88,2.25,1.87,3.21,2.98.96,1.1,1.74,2.34,2.35,3.72.61,1.38.91,2.98.91,4.8v4.32h-3.6v-4.32c0-1.34-.22-2.53-.67-3.55-.45-1.02-1.06-1.96-1.82-2.81-.77-.85-1.66-1.65-2.69-2.4-1.02-.75-2.1-1.51-3.22-2.28-1.15-.77-2.31-1.58-3.48-2.45-1.17-.86-2.22-1.83-3.14-2.9-.93-1.07-1.69-2.27-2.28-3.6-.59-1.33-.89-2.86-.89-4.58v-3.12h3.6v3.12c0,1.25.22,2.36.67,3.34.45.98,1.05,1.87,1.8,2.69s1.62,1.59,2.61,2.33c.99.74,2.03,1.47,3.11,2.21Zm-5.55,2.69c.42.32.83.62,1.25.91.42.29.85.58,1.3.86.1.06.18.13.26.19.08.06.17.13.26.19-.83.61-1.58,1.22-2.26,1.85s-1.29,1.3-1.81,2.04-.93,1.54-1.21,2.4c-.29.86-.43,1.82-.43,2.88v4.32h-3.6v-4.32c0-1.34.17-2.56.5-3.65.34-1.09.78-2.09,1.34-3,.56-.91,1.22-1.75,1.97-2.52.75-.77,1.56-1.49,2.42-2.16Zm15.55-16.37v3.12c0,1.28-.17,2.46-.5,3.53-.34,1.07-.78,2.05-1.34,2.93-.56.88-1.22,1.7-1.97,2.45-.75.75-1.54,1.45-2.38,2.09-.48-.35-.96-.68-1.44-.98s-.94-.62-1.39-.94c-.06-.06-.11-.1-.14-.12-.03-.02-.08-.06-.14-.12.8-.58,1.55-1.18,2.26-1.8.7-.62,1.31-1.29,1.82-1.99.51-.7.91-1.46,1.2-2.28.29-.82.43-1.74.43-2.76v-3.12h3.6Z"/>
    </g>
  </g>
</svg>