<?xml version="1.0" encoding="UTF-8"?>
<svg id="Layer_2" data-name="Layer 2" xmlns="http://www.w3.org/2000/svg" viewBox="0 0 65.52 69.56">
  <defs>
    <style>
      .cls-1 {
        fill: none;
      }

      .cls-2 {
        fill: #231f20;
        stroke: #231f20;
        stroke-miterlimit: 10;
        stroke-width: 3px;
      }
    </style>
  </defs>
  <g id="Layer_1-2" data-name="Layer 1">
    <g>
      <path class="cls-2" d="m33.81,32.11c1.4.92,2.8,1.88,4.2,2.88,1.4,1.01,2.67,2.14,3.8,3.41,1.13,1.26,2.06,2.68,2.78,4.26.72,1.58,1.08,3.41,1.08,5.49v4.95h-4.27v-4.95c0-1.54-.27-2.89-.8-4.07-.53-1.17-1.25-2.24-2.16-3.21-.91-.97-1.97-1.89-3.19-2.75-1.21-.86-2.49-1.73-3.81-2.61-1.37-.88-2.74-1.81-4.13-2.8-1.39-.99-2.63-2.1-3.73-3.32-1.1-1.23-2-2.6-2.7-4.12-.7-1.52-1.05-3.27-1.05-5.25v-3.57h4.27v3.57c0,1.43.26,2.7.79,3.82.53,1.12,1.24,2.14,2.13,3.08s1.92,1.82,3.09,2.67c1.17.84,2.4,1.69,3.69,2.53Z"/>
      <path class="cls-2" d="m26.08,37.45c.42.32.83.62,1.25.91.42.29.85.58,1.3.86.1.06.18.13.26.19.08.06.17.13.26.19-.83.61-1.58,1.22-2.26,1.85s-1.29,1.3-1.81,2.04-.93,1.54-1.21,2.4c-.29.86-.43,1.82-.43,2.88v4.32h-3.6v-4.32c0-1.34.17-2.56.5-3.65s.78-2.09,1.34-3c.56-.91,1.22-1.75,1.97-2.52.75-.77,1.56-1.49,2.42-2.16Z"/>
      <path class="cls-2" d="m45.68,16.45v3.12c0,1.28-.17,2.46-.5,3.53-.34,1.07-.78,2.05-1.34,2.93-.56.88-1.22,1.7-1.97,2.45-.75.75-1.54,1.45-2.38,2.09-.48-.35-.96-.68-1.44-.98s-.94-.62-1.39-.94c-.06-.06-.11-.1-.14-.12-.03-.02-.08-.06-.14-.12.8-.58,1.55-1.18,2.26-1.8.7-.62,1.31-1.29,1.82-1.99.51-.7.91-1.46,1.2-2.28.29-.82.43-1.74.43-2.76v-3.12h3.6Z"/>
    </g>
    <rect class="cls-1" width="65.52" height="69.56"/>
  </g>
</svg>